# xmcd CD database file
#
# Track frame offsets:
#	150
#	28585
#	42972
#	61372
#	83702
#	103087
#	121197
#	141800
#	159572
#	178110
#
# Disc length: 2620 seconds
#
# Revision: 0
# Processed by: cddbd v1.5.1PL0 Copyright (c) Steve Scherf et al.
# Submitted via: CDex 1.51
#
DISCID=800a3a0a
DTITLE=THE ROOSTERZ - φ
DYEAR=1984
DGENRE=Rock
TTITLE0=VENUS
TTITLE1=COME ON
TTITLE2=DOWN DOWN
TTITLE3=HEAVY WAVY
TTITLE4=BROKEN HEART 破れたハート
TTITLE5=FEMALE FATALE
TTITLE6=STREET IN THE DARKNESS
TTITLE7=MESSAGE FROM.....COME ON, LOVE MY GIRL
TTITLE8=LAST SOUL
TTITLE9=MUSIC FROM ORIGINAL MOTION PICTURE''PUNISHMENT''
EXTD=YEAR: 1984.12/21
EXTT0=
EXTT1=
EXTT2=
EXTT3=
EXTT4=
EXTT5=
EXTT6=
EXTT7=
EXTT8=
EXTT9=
PLAYORDER=
